**ABCDEFGHIJKLMNOPQRSTUVWXYZabcdefghijklmnopqrstuvwxyz**************************
**PARASOLID !"#$%&'()*+,-./:;<=>?@[\]^_`{|}~0123456789**************************
**PART1;
MC=AMD64;
MC_MODEL=AMD64 Family 23 Model 24 Stepping 1, AuthenticAMD;
MC_ID=unknown;
OS=Windows_NT;
OS_RELEASE=unknown;
FRU=Parasolid Version 35.1, build 256,  4-22-2024;
APPL=SOLIDWORKS 2024-2024282;
SITE=;
USER=unknown;
FORMAT=text;
GUISE=transmit;
KEY=makeProjectedPlanarWire;
FILE=makeProjectedPlanarWire.x_t;
DATE=Thu Apr  3 00:03:09 2025;
**PART2;
SCH=SCH_3501256_35102;
USFLD_SIZE=0;
**PART3;
**END_OF_HEADER*****************************************************************
T51 : TRANSMIT FILE created by modeller version 350125623 SCH_3501256_35102_1300
6231 0 12 36 CCCI7 lattice222 0 CCCI4 mesh1006 0 I8 polyline1008 0 CCCCCCCDI5 ow
ner1040 0 CCCI16 boundary_lattice222 0 CCCI13 boundary_mesh1006 0 I17 boundary_p
olyline1008 0 CCCA16 index_map_offset0 0 1 dA9 index_map82 0 A17 node_id_index_m
ap82 0 A20 schema_embedding_map82 0 A5 child12 0 A14 lowest_node_id0 0 1 dA16 me
sh_offset_data206 0 Z1 69 2 3 0 0 0 0 0 0 0 1e3 1e-8 0 4 0 1 0 3 1 5 0 6 7 8 0 0
 9 10 11 0 0 0 0 0 0 0 81 255 2 2 60 12 1 13 0 0 0 14 0 70 11 CI9 list_type0 0 1
 uI10 notransmit0 0 1 lCCCDCCDI12 finger_index0 0 1 dI12 finger_block1012 0 CZ3
 0 4 T1 0 0 3 20 1 15 15 13 255 5 65 0 1 0 16 0 0 9 16 50 255 6 3 0 16 0 0 0 +.0
15 -.015 -693889390390731e-32 -.707106781186551 .707106781186544 327102595559121
5e-31 -.707106781186544 -.707106781186551 0 30 255 7 32 0 10 17 0 0 +-.011012193
3088195 -.04101219330881995 -.028 .707106781186544 .707106781186551 -30977204928
15725e-31 29 255 8 56 0 11 18 0 .02858578643762695 -.001414213562373104 -.028 19
 9 CCCCCCI5 frame230 0 CA5 owner12 0 Z9 64 0 1 0 0 5 0 V0 16 255 10 30 0 ?19 0 2
0 7 0 0 1 18 255 11 54 0 21 0 22 8 ?1 17 255 21 0 0 0 0 11 23 24 0 19 -18 22 51
 0 25 11 26 18 ?1 17 25 0 27 19 28 22 29 20 0 30 +18 26 48 0 28 22 31 32 ?1 29 1
8 53 0 22 32 8 -.0110121933088195 -.04101219330881995 -.028 29 32 50 0 26 33 18
 -.01101219330881948 -.04101219330881995 .028 29 33 47 0 31 34 32 .0285857864376
2695 -.001414213562373124 .028 18 31 45 0 23 26 35 33 ?1 29 34 44 0 35 36 33 .03
 0 -.03 18 35 42 0 37 31 38 34 ?1 29 36 41 0 38 39 34 .03 0 .03 18 38 39 0 40 35
 41 36 ?1 29 39 38 0 41 42 36 -.01242640687119256 -.0424264068711931 .03 18 41 3
6 0 43 38 44 39 ?1 29 42 35 0 44 0 39 -.0124264068711926 -.0424264068711931 -.03
 18 44 33 0 45 41 0 42 ?1 17 45 0 46 43 47 44 37 48 0 49 -15 255 46 7 0 45 16 27
 17 43 0 46 40 45 41 49 50 0 51 -17 47 0 46 45 40 35 52 53 0 0 -17 37 0 0 0 0 35
 45 48 0 47 +16 48 9 0 ?37 50 0 54 0 0 1 17 49 0 0 0 0 44 43 50 0 0 +16 50 12 0
 ?49 55 48 56 0 0 1 16 55 15 0 ?51 53 50 57 0 0 1 30 56 14 0 50 54 57 0 +-.01242
640687119256 -.0424264068711931 .03 -462592926927149e-30 0 -1 30 54 11 0 48 0 56
 0 +-.0124264068711926 -.0424264068711931 -.03 .707106781186544 .707106781186551
 -3469446951953615e-31 30 57 17 0 55 56 58 0 +-.01242640687119256 -.042426406871
1931 .03 -.707106781186544 -.707106781186551 3469446951953615e-31 30 58 20 0 53
 57 59 0 +.03 0 .03 462592926927149e-30 0 1 16 53 18 0 ?52 24 55 58 0 0 1 30 59
 23 0 24 58 60 0 +.02858578643762695 -.001414213562373104 .028 433680868994202e-
30 0 1 16 24 21 0 ?23 61 53 59 0 0 1 30 60 26 0 61 59 17 0 +-.01101219330881948
 -.04101219330881995 .028 -.707106781186544 -.707106781186551 3097720492815725e-
31 16 61 24 0 ?28 20 24 60 0 0 1 30 17 29 0 20 60 7 0 +-.01101219330881948 -.041
01219330881995 .028 -495635278850516e-30 0 -1 16 20 27 0 ?25 10 61 17 0 0 1 17 2
8 0 27 25 23 26 62 61 0 29 +15 27 8 0 23 16 0 17 23 0 27 28 19 31 21 24 0 62 +17
 62 0 0 0 0 31 28 61 0 0 -17 29 0 0 0 0 26 25 20 0 0 -17 19 0 27 23 25 11 30 10
 0 0 +17 30 0 0 0 0 22 19 10 0 0 -14 255 16 1 63 ?0 0 46 5 6 +0 0 0 0 5 81 1 63
 69 64 16 0 0 0 0 65 80 7 CCCCCDI12 legal_owners0 16 1 lCZ1 64 66 67 9000 1 1 1
 1 1 1 1 1 0 FFFFTFTFFFFFFFFF1 82 255 1 65 -1413283534 79 255 14 67 SWEntUnchang
ed17 52 0 0 0 0 38 47 53 0 0 +17 51 0 0 0 0 41 40 55 0 0 +17 40 0 46 47 43 38 51
 55 0 52 -74 4 CI16 index_map_offset0 0 1 dCCZ20 15 3 0 0 13 2 63 0 0 0 0 0 0 0
 0 0 0 0 0 0 0 0 0 0 81 2 13 57 68 1 0 2 0 0 69 0 80 2 68 70 71 8004 0 0 0 0 3 5
 0 0 0 FFTFFFFFFFFFFFFF2 3 83 255 1 69 1 79 16 71 SDL/TYSA_DENSITY80 2 12 72 73
 9000 0 0 0 0 3 5 0 0 0 FFTFTTTFFTFFFFFF10 10 98 255 17 14 83 97 108 105 101 110
 116 101 45 69 120 116 114 117 105 114 50 79 23 73 SWIMPLICITBODYNAME_ID_U1 0 
